<svg id="Layer_1" data-name="Layer 1" xmlns="http://www.w3.org/2000/svg" viewBox="0 0 45 45"><defs><style>.cls-1{fill:#fff;}.cls-2{opacity:0.9;}.cls-3{fill:#5c5d60;}</style></defs><title>logo-luke</title><circle class="cls-1" cx="22.5" cy="22.5" r="22.5"/><g class="cls-2"><path class="cls-3" d="M42.0479,36.2783H36.14l-0.0361-.0654c-1.2607-2.3252-2.4121-4.3584-3.4229-6.042s-2.1143-3.43-3.2812-5.1953H27.42v7.7852A3.0994,3.0994,0,0,0,27.5781,33.8a1.1117,1.1117,0,0,0,.6357.6406,3.9889,3.9889,0,0,0,.9092.2188,10.1566,10.1566,0,0,0,1.12.1211l0.12,0.0049v1.4932H21.1489V34.792l0.1128-.0107q0.3567-.0352,1.0347-0.123a3.0765,3.0765,0,0,0,.9077-0.2148,1.2534,1.2534,0,0,0,.5938-0.6094,2.6,2.6,0,0,0,.1895-1.0732V14.7256a3.5109,3.5109,0,0,0-.1436-1.0522,1.0531,1.0531,0,0,0-.6328-0.644,5.68,5.68,0,0,0-.9478-0.2822,7.8819,7.8819,0,0,0-1-.1646l-0.1147-.01V11.085h9.9116a9.6442,9.6442,0,0,1,2.5586.33,6.4453,6.4453,0,0,1,2.1777,1.0669,5.155,5.155,0,0,1,1.5166,1.8818,6.3443,6.3443,0,0,1,.5654,2.7881,8.1283,8.1283,0,0,1-.38,2.5889,5.53,5.53,0,0,1-1.1309,1.96,6.8054,6.8054,0,0,1-1.6436,1.333,11.2033,11.2033,0,0,1-1.9492.8994c1.0264,1.6,1.8516,2.9033,2.5225,3.98q1.0386,1.67,2.5469,4.0605a7.974,7.974,0,0,0,1.168,1.5312,6.1432,6.1432,0,0,0,1.0322.8008,3.1141,3.1141,0,0,0,.9326.3369,6.1808,6.1808,0,0,0,.9512.1377l0.1191,0.0059v1.4922Zm-5.76-.25h5.51V35.0225a6.7819,6.7819,0,0,1-.8711-0.1357,3.3319,3.3319,0,0,1-1.01-.3662,6.4506,6.4506,0,0,1-1.0762-.834,8.2712,8.2712,0,0,1-1.208-1.58q-1.5073-2.3906-2.5479-4.0605c-0.6875-1.1064-1.54-2.4521-2.6055-4.1123L32.3936,23.8l0.1514-.0518a11.1027,11.1027,0,0,0,2.0527-.93,6.5473,6.5473,0,0,0,1.584-1.2847,5.289,5.289,0,0,0,1.0811-1.873,7.881,7.881,0,0,0,.3662-2.5088,6.0992,6.0992,0,0,0-.54-2.6787,4.9107,4.9107,0,0,0-1.4424-1.792,6.1939,6.1939,0,0,0-2.0937-1.0249,9.3913,9.3913,0,0,0-2.4922-.3208H21.3989v1.01a8.6076,8.6076,0,0,1,.918.1582,5.8838,5.8838,0,0,1,.9937.2969,1.3105,1.3105,0,0,1,.7715.7983,3.7549,3.7549,0,0,1,.1553,1.1274V32.7607a2.8271,2.8271,0,0,1-.2129,1.1768,1.51,1.51,0,0,1-.7061.7275,3.2248,3.2248,0,0,1-.99.2412c-0.3882.05-.6982,0.0879-0.93,0.1123v1.01h8.7144V35.0244c-0.2891-.0166-0.6348-0.0566-1.0293-0.1191A4.02,4.02,0,0,1,28.11,34.667a1.3638,1.3638,0,0,1-.7686-0.7832,3.3674,3.3674,0,0,1-.1719-1.123V24.7256h2.3643l0.0371,0.0557c1.1826,1.7871,2.3008,3.5576,3.3242,5.2607C33.8984,31.7139,35.0391,33.7275,36.2881,36.0283ZM29.2529,23.4639H27.17V12.5264h2.665a3.9743,3.9743,0,0,1,3.2188,1.37,5.568,5.568,0,0,1,1.1348,3.6689,6.2916,6.2916,0,0,1-1.4053,4.3037A4.5407,4.5407,0,0,1,29.2529,23.4639Zm-1.833-.25h1.833a4.2993,4.2993,0,0,0,3.3428-1.5107,6.0515,6.0515,0,0,0,1.3428-4.1377,5.3313,5.3313,0,0,0-1.0762-3.5088,3.7387,3.7387,0,0,0-3.0273-1.28H27.42V23.2139Z"/><path class="cls-3" d="M21.8716,36.2783H5.0591V34.792l0.1128-.0107q0.3567-.0352,1.0347-0.123a3.0764,3.0764,0,0,0,.9072-0.2148,1.2573,1.2573,0,0,0,.5938-0.6094,2.6,2.6,0,0,0,.19-1.0732V14.9014a2.8791,2.8791,0,0,0-.1641-1.0107,1.3032,1.3032,0,0,0-.623-0.6729,4.5888,4.5888,0,0,0-.9419-0.4038,4.7306,4.7306,0,0,0-.9956-0.2314l-0.1143-.01V11.085h9.2v1.4927l-0.12.0054a5.8855,5.8855,0,0,0-1.06.1724,7.0386,7.0386,0,0,0-.9453.2754,1.0681,1.0681,0,0,0-.625.6479,3.0357,3.0357,0,0,0-.1787,1.0469v16.752a12.7258,12.7258,0,0,0,.0957,1.7832,1.587,1.587,0,0,0,.4194.9229,1.7624,1.7624,0,0,0,.9536.3779,14.2865,14.2865,0,0,0,1.8872.0957c0.3643,0,.749-0.0117,1.1436-0.0352a8.2383,8.2383,0,0,0,1.1187-.1387,4.9519,4.9519,0,0,0,.9395-0.2822,1.4112,1.4112,0,0,0,.5981-0.4248,16.1,16.1,0,0,0,1.415-2.4336,18.95,18.95,0,0,0,1.1206-2.6445l0.0273-.0879H22.335Zm-16.5625-.25H21.6362l0.4331-7.168H21.2334a19.8678,19.8678,0,0,1-1.1084,2.5938,16.2869,16.2869,0,0,1-1.439,2.4717,1.6412,1.6412,0,0,1-.7012.5059,5.21,5.21,0,0,1-.9873.2969,8.5959,8.5959,0,0,1-1.1528.1436c-0.3994.0234-.7891,0.0352-1.1582,0.0352a14.6542,14.6542,0,0,1-1.9224-.0977,1.9994,1.9994,0,0,1-1.09-.4453,1.8274,1.8274,0,0,1-.4946-1.0664,12.9279,12.9279,0,0,1-.0986-1.82V14.7256a3.2809,3.2809,0,0,1,.1943-1.1328,1.3212,1.3212,0,0,1,.7642-0.793,7.1084,7.1084,0,0,1,.9829-0.2876,6.8283,6.8283,0,0,1,.9868-0.1719V11.335h-8.7v1.0112a5.4089,5.4089,0,0,1,.937.23,4.8184,4.8184,0,0,1,.9907.4253,1.542,1.542,0,0,1,.7314.8008,3.1359,3.1359,0,0,1,.18,1.0986V32.7607a2.8444,2.8444,0,0,1-.2129,1.1768,1.51,1.51,0,0,1-.707.7275,3.1962,3.1962,0,0,1-.9893.2412c-0.3882.05-.6982,0.0879-0.93,0.1123v1.01Z"/><path d="M41.9229,36.1533h-5.709q-1.897-3.498-3.4258-6.0469-1.5308-2.5488-3.3213-5.2559H27.2949v7.91a3.225,3.225,0,0,0,.165,1.0811,1.2391,1.2391,0,0,0,.7021.7119,4.02,4.02,0,0,0,.9414.2285,9.97,9.97,0,0,0,1.1348.123v1.248H21.2739v-1.248q0.3582-.0352,1.0386-0.123a3.13,3.13,0,0,0,.9492-0.2285,1.3818,1.3818,0,0,0,.6494-0.668,2.7038,2.7038,0,0,0,.2012-1.125V14.7256a3.6306,3.6306,0,0,0-.1494-1.09,1.1833,1.1833,0,0,0-.7012-0.7207,5.7458,5.7458,0,0,0-.9717-0.29,7.9489,7.9489,0,0,0-1.0161-.167V11.21h9.7866a9.4752,9.4752,0,0,1,2.5254.3252,6.2879,6.2879,0,0,1,2.1357,1.0459,5.0158,5.0158,0,0,1,1.4795,1.8369,6.193,6.193,0,0,1,.5527,2.7334,7.9678,7.9678,0,0,1-.373,2.5488,5.3868,5.3868,0,0,1-1.1055,1.916,6.6492,6.6492,0,0,1-1.6143,1.31,11.1945,11.1945,0,0,1-2.0762.94q1.5674,2.4434,2.6064,4.1133T37.7393,32.04a8.0486,8.0486,0,0,0,1.1875,1.5557,6.2962,6.2962,0,0,0,1.0537.8174,3.2311,3.2311,0,0,0,.9717.3516,6.2153,6.2153,0,0,0,.9707.1406v1.248ZM34.0635,17.5654a5.4252,5.4252,0,0,0-1.1055-3.5889,3.8406,3.8406,0,0,0-3.123-1.3252h-2.54V23.3389h1.958a4.4014,4.4014,0,0,0,3.4365-1.5527A6.1434,6.1434,0,0,0,34.0635,17.5654Z"/><path d="M22.2021,28.7354l-0.4482,7.418H5.1841v-1.248q0.3582-.0352,1.0386-0.123a3.1255,3.1255,0,0,0,.9487-0.2285,1.3828,1.3828,0,0,0,.65-0.668,2.7112,2.7112,0,0,0,.2017-1.125V14.9014a2.9933,2.9933,0,0,0-.1719-1.0547,1.419,1.419,0,0,0-.68-0.7383,4.6654,4.6654,0,0,0-.9639-0.4131,4.8,4.8,0,0,0-1.0234-.2373V11.21h8.95v1.248a5.9807,5.9807,0,0,0-1.083.1758,7.0953,7.0953,0,0,0-.9639.2813,1.1966,1.1966,0,0,0-.6948.7207,3.1431,3.1431,0,0,0-.1865,1.09v16.752a12.7567,12.7567,0,0,0,.0972,1.8018,1.6987,1.6987,0,0,0,.4556.9932,1.8684,1.8684,0,0,0,1.0234.4131,14.3648,14.3648,0,0,0,1.9048.0967q0.553,0,1.1509-.0352a8.4948,8.4948,0,0,0,1.1353-.1406,5.1058,5.1058,0,0,0,.9639-0.29,1.5178,1.5178,0,0,0,.65-0.4658,16.1,16.1,0,0,0,1.4268-2.4521,18.95,18.95,0,0,0,1.1284-2.6631h1.0605Z"/></g></svg>