<svg id="Layer_1" data-name="Layer 1" xmlns="http://www.w3.org/2000/svg" viewBox="0 0 885 2000"><defs><style>.cls-1{fill:#1a1a1a;}</style></defs><title>Skylines_Chicago</title><path class="cls-1" d="M5.0112,198L4.98,203.5156l-4.98.04V2000c18.4115,0.0029,609.8726-.043,885,0V203.555c-17.4083,2.2069-37.1913,4.773-54.57,7.1922l-0.01,2.57c-0.1331,25.254.2786,50.5193-.416,75.7549-0.1457,5.288-4.2136,10.4892-6.6316,15.6566-0.2172.4644-1.6527,0.2568-2.4231,0.5908a24.8732,24.8732,0,0,0-2.2237,1.4639,6.2575,6.2575,0,0,1-2.4926,1.0866,2.311,2.311,0,0,1-1.2-1.7446c-0.0856-7.4059.2933-22.1379,0.2933-22.1379l-0.1164-3.8838-17.8875-.27-0.3037-5.08a8.2529,8.2529,0,0,1-1.7473,0c-7.1321-.0875-14.2656-0.0778-21.3983-0.0154-0.6989.0462-1.9667,0.0126-1.9667,0.0126l-0.063,3.9095-6.2442-.097s0.0158,7.8741-.0862,10.7263a3.9389,3.9389,0,0,1-.9921,1.5184,5.3282,5.3282,0,0,1-1.2949-1.5272c-6.0638-19.76-1.2635-40.0274-2.7033-60.0123a11.64,11.64,0,0,0-.521-3.1536c-13.4252-.9015-29.3643-2.22-42.7787-3.2831-3.9028-4.5547-9.2521-2.98-13.8244-2.5331-14.7974,1.4462-29.5319,3.5576-44.2673,5.583l-1.7317.1607c-0.0953,21.5062-.08,45.6528.0818,67.1582l-0.2067,3.8s-19.84.73-27.8262,1.3182l-2.981-.1516s0.1751-11.2487-.0762-15.5243L626.1865,280s-13.6106-.07-19.2252-0.1929l-2.267-.1821-0.1665-4.0833c-5.3485.0828-13.9451-.1013-19.2883,0.0857l-3.6505.0393s0.2506-10.125.0908-13.4235q-0.3834-16.5176-.8693-33.0326a6.4942,6.4942,0,0,0-.5-1.6444,3.4365,3.4365,0,0,1-1.18,1.0007,22.0825,22.0825,0,0,1-5.04.5386l-0.9249-2.562c-0.1537-1.5917.0327-3.2147-.0921-4.8115a4.6463,4.6463,0,0,0-.8987-1.6128,16.8328,16.8328,0,0,0-1.0546,1.4663c-0.3537.6136-.62,1.2775-0.9246,1.92l-0.9565-2.1329-3.97-2.9559,0.0424-2.43c-0.1206-6.8693-.0482-13.7418-0.1039-20.6128a6.2959,6.2959,0,0,0-.74-1.9761,6.7453,6.7453,0,0,0-.7042,2.0151c-0.0565,5.8892-.0349,23.1291-0.0349,23.1291L552.0467,220.82s-7.11-1.374-10.4478-2.4645c-0.6276-.2051-1.2333-1.5588-1.2474-2.3926-0.1056-6.245-.0254-12.4929-0.1-18.7388a10.21,10.21,0,0,0-.8225-2.7219,10.98,10.98,0,0,0-.6777,2.6086c-0.0593,6.2462.0659,12.4965-.1419,18.7363-0.03.903-1.5279,1.7559-2.3443,2.6341a11.2005,11.2005,0,0,0-2.2325,2.5281l-0.0523,2.9055-0.1217,6.1064-7.5769.125c-0.1148,20.6136-.0105,43.5319-0.1212,64.1455-0.0059,1.1023-1.2435,2.17-1.7973,3.3074a5.7255,5.7255,0,0,0-.7127,2.332c-0.05,8.9236,0,17.848-.0882,26.7711-0.0082.827-.7827,1.6465-1.2012,2.47-0.7528-.5751-1.55-1.101-2.25-1.7344a65.7532,65.7532,0,0,1-6.3639-6.0019c-1.2353-1.4628-1.79-3.5013-2.6495-5.2819q-0.4042-.8371-0.8108-1.6729a4.9476,4.9476,0,0,1-.7494,1.4692c-0.7376.6968-1.5973,1.7548-2.4319,1.7788-5.5236.1589-11.0563-.0109-16.5809,0.13-2.2441.057-3.0328-.4525-3.0514-2.9277l-1.0662-1.7161-1.2022,1.076c-0.7909,1.0682-1.5687,3.1458-2.2381,3.1015-1.5-.0994-2.9307-1.2429-4.1452-1.8408-0.8393,1.86-1.8168,5.1743-3.71,7.8358-1.3874,1.95-4.1422,2.8676-5.969,4.5847a8.2161,8.2161,0,0,0-2.1189,4.0311c-0.808,3.6042-1.0924,7.3379-2.09,10.8774-0.1952.6921-2.6535,0.93-4.0844,0.99-0.5191.022-1.1314-1.0507-1.62-1.6867-0.631-.8221-1.1784-1.7084-1.7653-2.5647-0.2273-.3316-0.4642-0.6566-0.6967-0.9846l-0.1373-3.7109-6.3316-2.7761c-0.1466-.05-0.3471,5.394-0.3471,5.394s-2.8225.012-3.7156,0.1619c-3.4855.5851-7.044,0.7292-10.5359,1.2868-0.5878.0939-1.3119,1.3846-1.3954,2.1829a21.9127,21.9127,0,0,0-.0142,5.8739c0.8458,4.9771-3.8654,1.0231-3.7984.5623a24.7278,24.7278,0,0,0,.0219-6.9012,38.1161,38.1161,0,0,0-1.829-6.9949c-0.3352-.9792-1.3576-1.701-1.8754-2.6454a6.966,6.966,0,0,1-1.13-3.0385c-0.0588-32.4829-.1815-64.9672.09-97.4479,0.0425-5.0862.0357-5.7274,0.0357-5.7274l-10.5119-.4583c0.1585-25.0752.06-54.2686,0.1759-79.3443,0.0133-2.8588-.0719-3.6362-0.0719-3.6362l-7.7434.0431-0.0833-4.625-9.825-.5c0-18.1155.0584-45.76,0.1665-63.875l-3.3806-.1209c-2.8287.5318-3.6059-.7049-3.5625-3.4886,0.1545-9.8737.06-19.7514-.537-29.6275,0,10.0466.0391,20.0935-.0509,30.1393l-0.0043,2.556L383.93,69.4853c-0.222-21.1438-.4875-48.34-0.5374-69.4853h-1.07c0.0069,21.03-.025,42.06.0741,63.09L382.3,66.2083h-9.367s0.3086,4.1482.0416,4.3333a4.9638,4.9638,0,0,1-1.298-.78,5.9925,5.9925,0,0,1-.0791-1.5927q0.01-34.0845.0247-68.1691h-1.07q-0.0817,29.9748-.1628,59.95c-0.0073,2.7661.1585,5.5473-.0962,8.29l-0.0662,2.1764c-0.4749.7859-2.4441,2.1586-2.9129,2.95a14.2853,14.2853,0,0,1-1.6416,1.9346,5.02,5.02,0,0,1-1.0451-1.9072c-0.0667-10.4394-.0485-20.8794-0.0494-31.3192V39.2311l-0.6095.0021c0,10.1406-.0341,20.2814.0189,30.4218,0.0181,3.4615-.0051,7.3033-0.0051,7.3033l-5.6619-.0625c-0.0613,18.56-.0812,39.9575.0449,58.5161,0.019,2.7993.08,3.7548,0.08,3.7548l-8.243-.0833c0.1718,26.1431.06,56.6742,0.1824,82.8179,0.014,2.9667.0674,3.6821,0.0674,3.6821l-9.825-.0833c0.2684,33.4589.0064,72.8844,0.1248,106.3451,0.0107,3.0251-.8541,3.7921-3.7281,3.6179-4.0865-.2475-8.2091.1185-12.2958-0.1246-2.8716-.1708-4.0329.5842-3.7592,3.637a47.3326,47.3326,0,0,1,.0012,9.09c-0.5233,5.0108-1.477,9.9753-2.0982,14.9782a17.4534,17.4534,0,0,0,.4186,3.8729c0.1188,1.09.68,2.7024,0.1927,3.1475-0.9707.5938-4.2927,0.5193-4.2927,0.5193l0.0611-2.7378,0.0222-3.7206c-5.45.2675-10.3579-1.401-10.6741-6.9985-0.1154-2.0452,2.1053-5.3931-2.2538-6.14-0.2713-.0465-0.3519-1.7941-0.3526-2.75q-0.0278-37.3425-.066-74.685c-0.0021-.8267-0.1-1.9681-0.1-1.9681l-15.4764-.1458-0.3381-7.1222c0-16.5074-.0039-37.06-0.1719-53.5653l-1.83-5.4042-6.8309-5.3364s-2.9652-2.76-3.24-4.46c-0.3516-2.1733-.8484-2.8333-3.016-2.7471-4.0946.1628-8.2092-.0963-12.2944,0.159a3.4546,3.4546,0,0,0-2.43,2.3431c0.0233,2.3984-.8017,3.2722-3.1042,2.9069-2.0736-.3289-3.1615.2678-2.959,2.6708,0.0554,0.6581-1.01,1.3908-1.514,2.1219-0.4753.69-.8768,1.43-1.3313,2.1342L247.196,210.5l-2.4354.0313c-0.0154,17.31-.0954,37.0808.05,54.39,0.0256,3.0347.0106,3.7146,0.0106,3.7146l-7.647.1766s0.1745,14.2179-.0647,19.4716l-0.061,2.2784-5.0582-.1875-0.3122-6.4375h-6.0574l-0.1873,10.125c-5.5644.6714-22.4185,0.75-22.4185,0.75l0.02,2.76c-0.1792,11.9541-.2549,23.9144-0.0318,35.8669,0.0637,3.4113-2.3007,3.7714-4.3506,4.7732a2.6279,2.6279,0,0,1-.9759-1.4626c1.2476-4.6429-1.0266-5.5932-5.0868-5.442-5.787.2156-11.671-.5509-17.359,0.23-5.3719.7377-8.9424-2.6326-13.34-4.0667a1.5429,1.5429,0,0,1-.5557-1.3324c0.6845-3.7416-1.4941-3.813-4.2964-3.758-7.3078.1436-14.62,0.0707-21.9309,0.038-3.5914-.0161-6.9192-3.4915-7.0364-7.09-0.1531-4.6974-.0013-9.4645-0.8128-14.0542l-4.19-5.8358a0.7822,0.7822,0,0,0-.7451.0528l-12.4047,3.1542s-2.1116-1.2674-3.238-1.7991a8.0366,8.0366,0,0,1-2.02,1.5695l-8.3074.1a3.8665,3.8665,0,0,1-.7309-1.7252c-0.109-1.5538-.0361-3.12-0.0361-5.1514a3.911,3.911,0,0,0-.928.8617l-0.572,5.8315-12.8224.0833s0.1061,14.8234-.268,18.913a3.3422,3.3422,0,0,1-2.2474,2.3405c-3.7268.2474-8.203,1.3577-11.029-.259-3.0333-1.7352-5.6972-1.5325-8.612-1.7391a6.1129,6.1129,0,0,0-1.7318.2146q-0.0027-33.6457-.0016-67.2915a28.8382,28.8382,0,0,1-2.2781-1.7806c-0.6319-.5965-1.097-1.367-1.7085-1.9888-0.3869-.3934-1.1683-0.5576-1.3295-0.99l-0.269-7.2524-14.3212-.2917-0.0416-4.2083c-9.0144-.1356-11.1589-0.2025-11.1589-0.2025s-0.08-24.9942.05-31.506l-2.7886-.0128-7.1053-.0289-0.0313-4.2707"/></svg>