<svg id="Milwaukee_Skyline" data-name="Milwaukee Skyline" xmlns="http://www.w3.org/2000/svg" viewBox="0 0 1450 1894"><title>Skylines_Milwaukee</title><path id="Buildings" d="M1435,376v0l-12.6667,0s-0.2742-30.7908-.3705-37.7888a52.2517,52.2517,0,0,0-.78-6.0936h-4.865l-0.6748,1.7933h-4.4973v-8.7951h-15.0588V310.0575h-24.8981c-0.1288-1.1339-.2183-1.9216-0.3274-2.8818h-7.5841c-0.1328.7059-.3049,1.62-0.51,2.7095h-3.6821v7.8242l-5.007-.3026c-0.2476,3.1464.0493,6.7173-.15,10.6652-2.579-.4774-5.0984.7485-7.5864-0.9866a3.6279,3.6279,0,0,0-3.3739.0018c-2.401,1.8243-4.5133.4007-6.7372-.0867-0.3063-.0671-0.614-0.1269-1.097-0.2261V308c-1.6066,0-3.0566.1095-4.4841-.0236-2.7025-.2519-5.3842-0.7708-8.0895-0.94-2.6559-.1663-5.3663.2344-7.9866-0.1134-2.5538-.3391-4.6659,1.1625-7.0957,1.0918-2.3291-.0677-4.6616-0.0146-7.2781-0.0146-0.1085-1.2355-.2181-2.4833-0.3392-3.861h-10.7885v3.55l-1.8893.494V329.741h-5.0493V217.1071h-16.0554v-6.9066H1233.02v4.59c-1.145,3.13-3.4872,1.6881-5.0912,2.5386l1.0706,1.2-0.7062.62c0.911,2.5613,1.5782,65.4217.5592,78.9824-0.1266,1.6852.5883,3.7214-.5065,5.6678,0.0057,0.0065.318,0.3545,0.6292,0.7012l-0.9792,1.0576c1.9695,5.1027.7509,10.4011,0.9578,15.5987,0.2119,5.3244.0469,10.6638,0.0469,15.9966s0.0492,10.6663-.0287,15.998c-0.0248,1.7026-.3864,3.4-0.651,5.5679,0.0253,0.0381.3706,0.5582,0.7152,1.077-0.4542,1.0166-.8928,1.998-1.3844,3.0981h-4.4719v-46.738H1215V300.4277c0-2.6664.4587-5.44-.1333-7.968-0.5551-2.3694.4088-4.4565,0.1926-6.7078-0.2537-2.6421-.0593-5.3271-0.0593-7.9935V208.7933c-1.1621-2.4145-3.0564-1.5653-4.9331-1.9372V194.0382h-34.8855v-3.7825l-4.0552-.4218v-12.609h-10.967l-5.9817-4.5191v-6.54c-1.7561-.0585-3.3644-0.1965-4.9668-0.1447a8.3829,8.3829,0,0,1-5.7209-1.9442c-4.54-3.5294-8.6838-7.5263-13.5052-10.7472-3.4886-2.3306-6.4023-5.5217-9.8676-8.59a17.1194,17.1194,0,0,0-4.0553,1.7852c-4.0636,3.1748-7.8253,6.748-11.9783,9.7927-3.8528,2.8244-7.09,6.3666-11.316,8.8-3.1492,1.8134-5.6575,4.7268-8.4978,7.0944-1.851,1.5428-3.7855,2.9852-6.0765,4.7815h-38.1315c-2.3049,4.0737-.3088,8.4924-1.2753,12.798h-6.1982l-1.5079,1.9362a1.4928,1.4928,0,0,0,.15.95c1.2693,1.3744,1.1158,2.5947-.2,3.7931,2.66,2.4731.0057,5.4665,0.7887,8.2941,0.8142,2.9409.1815,6.2825,0.1815,9.4489v37.4963c0,3,.1371,6.0074-0.0381,8.9969-0.1779,3.0365.9016,6.2272-.9827,9.3l1.1461,2.08-1.0466,1.4481,1.0621,1.17-0.8359,1.84c0.4458,1.0871,1.5647,2.4948-.1681,3.8188,1.2491,0.8094-.751,2.4545.2865,2.9351l-1.1613,2.6545-2.97-3.9927h-2.225v-9.2017c-1.7892,1.4877-.8625,2.9771-1.023,4.2374A35.83,35.83,0,0,0,1024,281.49c-2.0785.4742-2.2329,2.8674-3.9973,3.9333v8.0743c-0.53.53-.8835,0.8834-1.2368,1.2377a3.3646,3.3646,0,0,1-.89.2538C998.3893,295.0012,978.9026,295,959,295c0-2.345.5243-4.7983-.1469-6.863a19.6927,19.6927,0,0,1-.8489-6.133,48.0668,48.0668,0,0,0-.3549-6.8936c-0.4081,3.2358-2.0852,6.2279-1.6354,9.5534,0.4672,3.454-.8148,6.6743-1.2328,10.3647H893.1157a187.4419,187.4419,0,0,1,54.0266,31.1667l-5.02,14.8289-5.0455,4.1227H889.089v1.8819h7.8245c-2.8138,1.1867-5.6709.8276-8.9135,1.0438v-4.49q0-48.2453.008-96.4906c0.0007-1.9326.1122-3.895-1.0486-5.5569a4.5542,4.5542,0,0,0-1.8106-.7985v-9.5123l2.7323-.4446V219.1925H867.2764c-0.1592-1.3937-.3-2.63-0.4575-4.0054L865.39,214.94l-0.671,1.927h-13.513V184.9927c2.39,0.0554,3.84,1.4968,5.3185,3.0344l1.4845-1.67-3.8716-4.9175-4.0338-1.2008v36.6357H836.7892l-2.6271-2.5856v4.5789H813.14v11.92l2.75,0.4313v9.5543l-1.4333.3143c-1.2986,1.8275-1.4939,3.9662-1.4908,6.2708q0.073,55.2446.0342,110.4893v5.025h-6.9513V335.02h-6.8772V161.5474c-2.9822-.7909-2.4783-4.2844-4.709-5.4932L792,160.8079c-1.9987.3162-3.63,0.56-4.3574-.4854-2.3627-12.2266-4.5991-23.7986-6.8251-35.3177h-1.4458c-0.5514,2.5569-1.1111,5.1525-1.6981,7.874h-6.3785c-0.493-2.2386-2.4368-3.9169-2.4888-6.4617-0.012-.5867-1.0356-1.4874-2.3054-1.488s-2.2936.8979-2.3063,1.4863c-0.0547,2.5435-1.9958,4.2229-2.5826,6.8846l-3.1248-1.0682-2.7211-11.064-2.581-.3065v-7.205l-2.06-1.9733v-6.291l-2.1713-1.2944V76.1821l-1.7416-.2083v27.252l-2.2362,2.3491v5.949l-1.968,1.9679v7.3531h-2.7213L736.68,132.7782H716.4506c-1.7241-2.1393-.2142-6.1028-3.882-8.2674-3.61,12.1121-5.7258,24.1874-9.052,36.4271l-2.1584.095c-0.4194-.7122-0.9014-1.5022-1.3547-2.3083s-0.8766-1.6259-1.5333-2.85l-4.4926,7.1731V274.8718h-6.3494l-1.7654,1.7653V334.906h-9.7023V272.325l-3.0581-.5588v-6.5533h-2.8465c-0.1417-1.3965-.2659-2.6212-0.4088-4.03H642.1354c1.4937,3.223-1.6649,3.5551-3.04,5.2847v4.9411l-3.1178,1.842v89.5975h-4.8684V9.092h-35.046V4.0332H588V0h-3V3.8682c-3.1519-.1772-6.2476.8162-9.46-0.6788a5.9685,5.9685,0,0,0-4.8289-.0458c-1.7754,1.0688-3.4513.65-5.5226,0.9152-0.103,1.4824-.2123,3.0551-0.3332,4.7953h-10.21L553.29,10.21c0,19.6828-.0025,39.1312.0293,58.58a1.41,1.41,0,0,0,.573.6024,5.4171,5.4171,0,0,0-.8524,1.6924c-0.1249,1.3212-.04,2.6624-0.04,3.9955V200.8721l-2.7428.1494C550.1,200.31,550,199.8557,549.855,199.2H539.6364l-1.4488-2.78,0.7487-.9024-0.88-.9843,1.4932-1.9676-2.3635-1.0525v7.33h-3.76c-0.25.7224-.4515,1.3029-0.7139,2.06h-5.6376V312.8857h-8.04v-171.79h-7.316l-2.7421-2.4434-2.5012,2.3232h-3.3762v-5.8531H491.1968V137.21a2.05,2.05,0,0,1-.51.5875c-6.1176.0173-12.2351,0.0154-18.6784,0.0154l1.2687,2.9758h-8.4138V127.9836l-0.8429.0033q-0.01,3.1448-.02,6.29c-0.0034,2.1413-.0008,4.2826-0.0008,6.5708h-7.9016c-0.0519-1.1208-.11-2.3653-0.1725-3.7242H440.1974v3.68h-8.03V362.8243l-4.0365.2084V325.1039h-6.0528V257.9427l-4.9387-1.3679v-9.4313h-3.059v9.7425H400.2362L399.8248,255.1c-7.3765-.2417-14.9424-0.0053-22.5916-0.13-0.1321.6412-.226,1.097-0.3852,1.87l-3.7637.29V289.795H348.0306V272.1775h-79.7c0.067-.0637-0.0751.0348-0.1655,0.1683a0.8318,0.8318,0,0,0-.1586.43c-0.0078,5.64-.0067,11.2795-0.0067,17.0922H243.1052v21.0549H225.0507v35.0536H207.1732v25.7748H188.1469v-4.6628h14.7354V330.001l-3.4132-4.0863H174.4171a21.8907,21.8907,0,0,1,7.1333-7.0789c4.2763-2.5316,8.7413-4.6429,13.1686-6.8547a28.0525,28.0525,0,0,0,2.9263-2.0067,25.7863,25.7863,0,0,0-10.8069-3.93c-2.839-.4473-5.875-0.5809-8.5132-1.2839-3.41-.9087-6.8757.0833-10.0244-1.0672-3.4182-1.2488-6.8672-.0984-10.1984-0.7382-9.1621-1.7595-18.3953-.6349-27.59-0.9109-1.0436-.0314-2.0337-1.47-3.1234-0.1553-0.936-1.4171-2.3814-.8008-3.6321-0.8718-1.3288-.0755-2.6652-0.017-3.9982-0.017H107.2608a20.7452,20.7452,0,0,0-3.9921.0355c-8.9838,1.7955-18.1163.1442-27.0655,1.1594-4.8947.5552-9.8023,0.1946-14.5786,0.9681-2.7161.44-5.3917,0.65-8.1068,0.8817a62.4884,62.4884,0,0,0-8.0488,1.1323c-4.9036,1.0845-10.2654,1.0978-14.7213,4.725a5.9072,5.9072,0,0,0,1.4777,1.7576c2.4923,1.2062,5.1382,2.1039,7.5967,3.3692,5.0136,2.58,10.9509,5.4964,13.1779,10.37a2.232,2.232,0,0,1-.2867.3775,0.7283,0.7283,0,0,1-.4044.215C43.9951,326.001,35.6813,326,27.1841,326v2.554l-2.03.6892v37.65H39.8727v10.9059H21.2242c-0.144-.5519-0.2618-1.0031-0.47-1.7988H0V1894H1450V376h-15ZM27.7626,392.7374a7.07,7.07,0,0,0-2.3488-.6738,10.4438,10.4438,0,0,0-2.7277,1.0007L21,391.5847v-4.5018h5.331l2.3624,4.7238Zm149.9732-85.7858c4.0668-.6467,9.1951.7883,14.4777,2.595-1.0017,2.576-3.7106,1.9111-5.3436,3.0649-1.8206,1.2861-3.9863-.1049-6.084.8774-1.8774.8792-4.3661,0.4531-6.5219,0.5987-0.9166-3.3182,1.9984-1.35,2.645-2.5582v-1.3214l-3.487-.5033ZM173.09,317.41c0.353-.3528.7062-0.706,1.0643-1.0641l7.4147-1.0961c0.08,1.3942-1.0673,1.5672-2.2256,1.9781a7.8631,7.8631,0,0,0-2.7292,1.8026,23.7786,23.7786,0,0,0-2.2092,2.8743l-1.3762-1.3762c0.3232-.358.6473-0.7151,1.15-1.2686ZM71.8973,305.1492V308c-2.5533,0-5.03-.1641-7.4736.0488a67.2507,67.2507,0,0,0-6.7361,1.26l-2.45-2.8974C60.5108,305.3752,65.9479,304.5255,71.8973,305.1492Zm-36.45,4.5473c3.1106-1.0107,5.6539-2.15,8.3145-2.6088,2.4062-.4152,4.94-0.0877,7.81-0.0877l2.3468,2.78-2.7823.43c-0.037.4961-.0706,0.9448-0.1179,1.5765l2.88,0.4241v1.39a1.6919,1.6919,0,0,1-.397.3793,1.3215,1.3215,0,0,1-.4872.0195c-1.8171,0-3.8718.5517-5.4042-.1088C43.8368,312.2644,39.1894,313.4112,35.4478,309.6965Zm10.7993,5.2744a19.9466,19.9466,0,0,0,3.2583.9887,32.6412,32.6412,0,0,0,4.1384.04l1.0767,5.1279A28.9047,28.9047,0,0,1,46.2471,314.9709Zm27.5742,77.1574a9.641,9.641,0,0,1-3.622.8869c-4.96-.0988-9.9211-0.127-14.8809-0.2271a1.8818,1.8818,0,0,1-.7057-0.6755c-0.6351.368-1.271,0.7357-1.9685,1.139l-1.5452-1.8478v-4.2527h25.68l1.3256,5.4888C76.435,392.3932,74.9289,391.72,73.8212,392.1283Zm18.1561-85.6931a1.67,1.67,0,0,1-.6754.54c-4.2883.0341-8.5773-.0086-12.8651,0.05a21.1577,21.1577,0,0,0-3.1974.5436l-1.1052-2.1672a0.3849,0.3849,0,0,1,.1909-0.2131c5.6761-1.68,11.4955-1.1,17.6522-1.2025v2.45Zm2.1365-2.2772h19.147l-1.3184,2.6811h-16.6C94.91,305.8956,94.5479,305.1053,94.1138,304.158Zm29.7849,87.4433-1.3082,1.3083-0.9579-.725c-6.3837,1.5884-12.8943.4543-19.1154,0.8326l-1.4144-1.4144v-4.4264h22.7958v4.4249Zm-7.5835-84.768-1.5087-1.8108a2.9636,2.9636,0,0,1,.7264-0.991c6.08-.038,12.1605-0.0316,19.2949-0.0316l-2.011,2.8333H116.3152Zm27.591,81.996H133.0939v-1.6586h10.8123v1.6586Zm0.9925-81.8029c-2.798-.1172-5.6046-0.0264-8.7325-0.0264-0.064-.8781-0.1292-1.7714-0.2228-3.055,6.1537,0.2592,12.1036-.6516,18.5193,1.7015l-1.6218,2.0978C150.2546,306.3763,147.5316,307.1367,144.8987,307.0264Zm18.0057,81.8008h-9.8087v-1.6544h9.8087v1.6544Zm7.7712-79.5373c-2.5247-.4531-4.8408-1.04-7.19-1.2432-2.4329-.21-4.8979-0.0467-7.91-0.0467l1.4731-2.7166c5.4193-1.1873,10.4528.7363,15.7841,0.8608C172.6365,307.5991,170.999,307.8414,170.6755,309.29Zm12.2282,79.537H172.0963v-1.6537h10.8074v1.6537Zm20.0073,0.0073H192.089v-1.6683h10.822v1.6683Zm17.997-.0037h-8.816V387.17h8.816V388.83Zm702.2527-26.8481c-5.3585.3572-10.715,0.8135-16.08,0.9813C901.7543,363.13,896.4187,363,891.0872,363h-2.9828V351.9516c2.87,0.3746,5.9249.1419,8.3908,1.236,4.1868,1.8577,8.7417,2.1345,12.9272,3.7939,1.1467,0.4547,2.5662.4119,3.5428,1.0694,2.9832,2.0082,6.2733,2.15,9.36,1.94l1.7251,1.4942A2.7443,2.7443,0,0,1,923.1608,361.9823ZM925,361.9776a7.9877,7.9877,0,0,1,.0127-1.4665,0.5687,0.5687,0,0,1,.3347-0.3436c4.1-.0177,8.2007-0.0148,12.4518-0.0148,0.0851,0.42.177,0.8739,0.3657,1.8057C933.6669,362.03,929.3336,362.0081,925,361.9776Zm53.91-.151h-2.82v-1.6532h2.82v1.6532Zm18,0.0073H980.09v-1.6677H996.91v1.6677Zm18.0009,0.0006H999.09v-1.6689H1014.91v1.6689Zm2.74-57.0135a1.7828,1.7828,0,0,0-.4855.528c-0.0151,12.784-.0143,25.5681-0.0143,38.7194a14.142,14.142,0,0,1-3.3123.894c-12.4833.0579-24.967,0.0376-36.895,0.0376-5.2346-3.1582-6.2085-8.3324-7.9211-13.0576-0.8442-2.3291-1.4478-4.7454-2.152-7.0947,15.5513-13.9173,33.51-22.3683,52.9751-29.0379,0.3073,3.04.08,5.94,0.17,9.0111h-2.3655Z"/></svg>